<?xml version="1.0" encoding="UTF-8"?>
<!DOCTYPE svg PUBLIC "-//W3C//DTD SVG 1.1//EN" "http://www.w3.org/Graphics/SVG/1.1/DTD/svg11.dtd">
<!-- Creator: CorelDRAW 2020 (64 Bit) -->
<svg xmlns="http://www.w3.org/2000/svg" xml:space="preserve" width="3.8221mm" height="2.7093mm" version="1.1" style="shape-rendering:geometricPrecision; text-rendering:geometricPrecision; image-rendering:optimizeQuality; fill-rule:evenodd; clip-rule:evenodd"
viewBox="0 0 6.72 4.77"
 xmlns:xlink="http://www.w3.org/1999/xlink"
 xmlns:xodm="http://www.corel.com/coreldraw/odm/2003">
 <defs>
  <style type="text/css">
   <![CDATA[
    .fil0 {fill:white}
   ]]>
  </style>
 </defs>
 <g id="Camada_x0020_1">
  <metadata id="CorelCorpID_0Corel-Layer"/>
  <path class="fil0" d="M4.81 2.38c0.11,0.16 0.53,0.46 0.61,0.63 0.07,0.16 0.05,0.3 -0.06,0.42 -0.12,0.13 -0.24,0.13 -0.39,0.13 -0.21,0 -0.56,-0.49 -0.77,-0.62l-0.54 0.51c-0.15,0.11 -0.14,0.11 -0.34,0.11 -0.17,0 -0.36,-0.16 -0.36,-0.37 0,-0.24 0.13,-0.3 0.29,-0.45 0.09,-0.09 0.31,-0.27 0.36,-0.35 -0.21,-0.29 -0.66,-0.46 -0.66,-0.8 0,-0.13 0.04,-0.19 0.11,-0.25 0.13,-0.13 0.17,-0.12 0.35,-0.12 0.17,0 0.32,0.17 0.43,0.27 0.09,0.08 0.3,0.26 0.36,0.34 0.21,-0.13 0.56,-0.62 0.77,-0.62 0.19,0 0.38,0.04 0.46,0.23 0.17,0.42 -0.42,0.65 -0.62,0.94zm-4.81 0c0,0.21 0.14,0.29 0.25,0.4l1.68 1.59c0.12,0.12 0.22,0.2 0.38,0.28 0.15,0.07 0.34,0.12 0.56,0.12l2.59 0c0.68,0 1.26,-0.53 1.26,-1.16l0 -2.45c0,-0.63 -0.59,-1.16 -1.26,-1.16l-2.59 0c-0.4,0 -0.68,0.15 -0.93,0.39l-1.68 1.59c-0.12,0.11 -0.26,0.19 -0.26,0.41z"/>
 </g>
</svg>
