<?xml version="1.0" encoding="UTF-8"?>
<!DOCTYPE svg PUBLIC "-//W3C//DTD SVG 1.1//EN" "http://www.w3.org/Graphics/SVG/1.1/DTD/svg11.dtd">
<!-- Creator: CorelDRAW 2020 (64 Bit) -->
<svg xmlns="http://www.w3.org/2000/svg" xml:space="preserve" width="23.368mm" height="23.3681mm" version="1.1" style="shape-rendering:geometricPrecision; text-rendering:geometricPrecision; image-rendering:optimizeQuality; fill-rule:evenodd; clip-rule:evenodd"
viewBox="0 0 1389.67 1389.67"
 xmlns:xlink="http://www.w3.org/1999/xlink"
 xmlns:xodm="http://www.corel.com/coreldraw/odm/2003">
 <defs>
  <style type="text/css">
   <![CDATA[
    .fil0 {fill:#292929}
   ]]>
  </style>
 </defs>
 <g id="Camada_x0020_1">
  <metadata id="CorelCorpID_0Corel-Layer"/>
  <path class="fil0" d="M521.19 1223.5c-47.02,0.54 -69.47,14.34 -124.51,2.03 -41.24,-9.22 -70.73,-31.1 -90.59,-55.81 -23.48,-29.21 -36.95,-97.85 -86.55,-130.78 -14.58,-9.69 -34.36,-18.67 -34.19,-39.23 32.98,-30.89 97.2,10.39 125.8,46.99 9.25,11.84 17.34,28.1 26.59,40.34 64.21,84.83 175.99,47.59 186.2,34.85 5.19,-6.47 4.95,-41.29 26.75,-73.48 2.99,-4.4 4.23,-5.84 7.17,-9.49 7.17,-8.94 3.46,-1.01 9.27,-12.96 -174.04,-14.51 -283.98,-98.63 -308.71,-265.65 -29.82,-201.52 63.24,-261.98 63.74,-278.58 0.15,-5.11 -10.63,-44.88 -11.7,-60.99 -1.57,-23.68 -0.17,-47.74 4.11,-70.43 1.46,-7.72 10.68,-51.73 19.24,-55.83 50.67,-8.47 134.01,37.3 165.61,58.94 31.58,21.62 25.01,10.76 86.82,0.35 35.44,-5.97 71.79,-9.17 108.52,-9.21 48.47,-0.05 105.97,6.17 152.89,18.36 26.17,6.8 23.48,3.13 42.82,-9.08 38.5,-24.32 107.6,-65.29 167.18,-59.59 17.91,22.82 24.63,83.71 23.06,119.39 -2.55,57.67 -22.95,59.76 -2.16,84.4 57.14,67.72 69.21,160.41 53.93,260.5 -25.9,169.63 -133.51,251.87 -309.98,267.4 6.08,11.82 2.11,3.87 9.54,12.57 28.49,33.34 35.53,81.66 35.79,126.18 1.18,207.77 -30.44,264.7 108.61,199.25 41.73,-19.64 80.73,-40.53 114.38,-65.57 123.04,-91.57 242.84,-228.6 284.45,-441.19 44.42,-226.99 -18.8,-429.14 -123.82,-572.14 -382.46,-520.77 -1181.3,-282.75 -1247.35,348.46 -24.03,229.57 60.7,427.63 169.52,549.69 15.78,17.7 25.23,30.47 42.91,47.28 46.5,44.22 97.86,81.42 156.4,113.65 22.72,12.51 103.15,55.09 130.54,43.29 23.85,-10.28 19.42,-43.5 19.04,-71.22 -0.42,-29.89 0.73,-63.35 -1.31,-92.7z"/>
 </g>
</svg>
