<?xml version="1.0" encoding="UTF-8"?>
<!DOCTYPE svg PUBLIC "-//W3C//DTD SVG 1.1//EN" "http://www.w3.org/Graphics/SVG/1.1/DTD/svg11.dtd">
<!-- Creator: CorelDRAW 2020 (64 Bit) -->
<svg xmlns="http://www.w3.org/2000/svg" xml:space="preserve" width="47.4132mm" height="47.4132mm" version="1.1" style="shape-rendering:geometricPrecision; text-rendering:geometricPrecision; image-rendering:optimizeQuality; fill-rule:evenodd; clip-rule:evenodd"
viewBox="0 0 4916.93 4916.93"
 xmlns:xlink="http://www.w3.org/1999/xlink"
 xmlns:xodm="http://www.corel.com/coreldraw/odm/2003">
 <defs>
  <style type="text/css">
   <![CDATA[
    .fil0 {fill:#292929}
   ]]>
  </style>
   <clipPath id="id0">
    <rect width="4916.93" height="4916.93"/>
   </clipPath>
 </defs>
 <g id="Camada_x0020_1">
  <metadata id="CorelCorpID_0Corel-Layer"/>
  <g style="clip-path:url(#id0)">
   <image x="-0" y="0" width="4916.93" height="4916.93" xlink:href="Sem título-1_Images\Sem título-1_ImgID1.png"/>
  </g>
  <path class="fil0" d="M1997.79 3841.07c-124.8,1.41 -184.38,37.39 -330.44,5.29 -109.46,-24.05 -187.74,-81.12 -240.45,-145.54 -62.33,-76.17 -98.07,-255.17 -229.7,-341.05 -38.7,-25.25 -91.18,-48.67 -90.73,-102.3 87.51,-80.57 257.95,27.1 333.87,122.56 24.56,30.87 45.99,73.29 70.57,105.2 170.41,221.22 467.07,124.1 494.17,90.9 13.76,-16.87 13.13,-107.67 71.02,-191.61 7.91,-11.48 11.22,-15.23 19.01,-24.76 19.04,-23.31 9.19,-2.61 24.59,-33.81 -461.9,-37.83 -753.69,-257.2 -819.3,-692.76 -79.16,-525.52 167.82,-683.21 169.17,-726.49 0.41,-13.33 -28.21,-117.05 -31.04,-159.05 -4.18,-61.77 -0.47,-124.49 10.9,-183.68 3.88,-20.14 28.35,-134.91 51.07,-145.58 134.48,-22.11 355.67,97.27 439.53,153.7 83.81,56.37 66.37,28.06 230.42,0.91 94.06,-15.58 190.54,-23.91 288.02,-24.02 128.64,-0.13 281.26,16.07 405.76,47.87 69.45,17.73 62.34,8.15 113.65,-23.69 102.17,-63.4 285.56,-170.26 443.7,-155.41 47.55,59.51 65.39,218.32 61.21,311.35 -6.76,150.41 -60.94,155.85 -5.75,220.12 151.64,176.59 183.68,418.32 143.13,679.33 -68.73,442.38 -354.34,656.83 -822.69,697.33 16.14,30.83 5.6,10.08 25.33,32.78 75.6,86.96 94.29,212.95 94.97,329.05 3.15,541.84 -80.77,690.28 288.26,519.61 110.75,-51.22 214.26,-105.69 303.56,-170.99 326.56,-238.8 644.51,-596.16 754.93,-1150.54 117.9,-591.95 -49.89,-1119.13 -328.61,-1492.04 -1015.06,-1358.09 -3135.2,-737.37 -3310.49,908.72 -63.76,598.67 161.1,1115.19 449.91,1433.51 41.89,46.17 66.95,79.45 113.88,123.3 123.42,115.33 259.73,212.33 415.09,296.39 60.28,32.63 273.77,143.65 346.44,112.88 63.29,-26.79 51.56,-113.44 50.52,-185.72 -1.11,-77.94 1.95,-165.19 -3.48,-241.74z"/>
 </g>
</svg>
