<?xml version="1.0" encoding="UTF-8"?>
<!DOCTYPE svg PUBLIC "-//W3C//DTD SVG 1.1//EN" "http://www.w3.org/Graphics/SVG/1.1/DTD/svg11.dtd">
<!-- Creator: CorelDRAW 2020 (64 Bit) -->
<svg xmlns="http://www.w3.org/2000/svg" xml:space="preserve" width="2.7092mm" height="2.7092mm" version="1.1" style="shape-rendering:geometricPrecision; text-rendering:geometricPrecision; image-rendering:optimizeQuality; fill-rule:evenodd; clip-rule:evenodd"
viewBox="0 0 22.98 22.98"
 xmlns:xlink="http://www.w3.org/1999/xlink"
 xmlns:xodm="http://www.corel.com/coreldraw/odm/2003">
 <defs>
  <style type="text/css">
   <![CDATA[
    .fil0 {fill:#292929}
   ]]>
  </style>
 </defs>
 <g id="Camada_x0020_1">
  <metadata id="CorelCorpID_0Corel-Layer"/>
  <path class="fil0" d="M8.62 20.24c-0.78,0.01 -1.15,0.24 -2.06,0.03 -0.68,-0.15 -1.17,-0.51 -1.5,-0.92 -0.39,-0.48 -0.61,-1.62 -1.43,-2.16 -0.24,-0.16 -0.57,-0.31 -0.57,-0.65 0.55,-0.51 1.61,0.17 2.08,0.78 0.15,0.2 0.29,0.46 0.44,0.67 1.06,1.4 2.91,0.79 3.08,0.58 0.09,-0.11 0.08,-0.68 0.44,-1.22 0.05,-0.07 0.07,-0.1 0.12,-0.16 0.12,-0.15 0.06,-0.02 0.15,-0.21 -2.88,-0.24 -4.7,-1.63 -5.11,-4.39 -0.49,-3.33 1.05,-4.33 1.05,-4.61 0,-0.08 -0.18,-0.74 -0.19,-1.01 -0.03,-0.39 -0,-0.79 0.07,-1.16 0.02,-0.13 0.18,-0.86 0.32,-0.92 0.84,-0.14 2.22,0.62 2.74,0.97 0.52,0.36 0.41,0.18 1.44,0.01 0.59,-0.1 1.19,-0.15 1.8,-0.15 0.8,-0 1.75,0.1 2.53,0.3 0.43,0.11 0.39,0.05 0.71,-0.15 0.64,-0.4 1.78,-1.08 2.77,-0.99 0.3,0.38 0.41,1.38 0.38,1.97 -0.04,0.95 -0.38,0.99 -0.04,1.4 0.95,1.12 1.14,2.65 0.89,4.31 -0.43,2.81 -2.21,4.17 -5.13,4.42 0.1,0.2 0.03,0.06 0.16,0.21 0.47,0.55 0.59,1.35 0.59,2.09 0.02,3.44 -0.5,4.38 1.8,3.3 0.69,-0.32 1.34,-0.67 1.89,-1.09 2.04,-1.51 4.02,-3.78 4.7,-7.3 0.73,-3.75 -0.31,-7.1 -2.05,-9.46 -6.33,-8.61 -19.54,-4.68 -20.63,5.76 -0.4,3.8 1,7.07 2.8,9.09 0.26,0.29 0.42,0.5 0.71,0.78 0.77,0.73 1.62,1.35 2.59,1.88 0.38,0.21 1.71,0.91 2.16,0.72 0.39,-0.17 0.32,-0.72 0.32,-1.18 -0.01,-0.49 0.01,-1.05 -0.02,-1.53l0 0z"/>
 </g>
</svg>
