<?xml version="1.0" encoding="UTF-8" standalone="no"?>
<!-- Created with Inkscape (http://www.inkscape.org/) -->

<svg
   width="2.7097807mm"
   height="2.7101948mm"
   viewBox="0 0 2.7097807 2.7101948"
   version="1.1"
   id="svg1"
   xml:space="preserve"
   xmlns:inkscape="http://www.inkscape.org/namespaces/inkscape"
   xmlns:sodipodi="http://sodipodi.sourceforge.net/DTD/sodipodi-0.dtd"
   xmlns="http://www.w3.org/2000/svg"
   xmlns:svg="http://www.w3.org/2000/svg"><sodipodi:namedview
     id="namedview1"
     pagecolor="#ffffff"
     bordercolor="#000000"
     borderopacity="0.25"
     inkscape:showpageshadow="2"
     inkscape:pageopacity="0.0"
     inkscape:pagecheckerboard="0"
     inkscape:deskcolor="#d1d1d1"
     inkscape:document-units="mm" /><defs
     id="defs1"><style
       type="text/css"
       id="style1">
   <![CDATA[
    .fil0 {fill:#292929}
   ]]>
  </style></defs><g
     inkscape:label="Camada 1"
     inkscape:groupmode="layer"
     id="layer1"
     transform="translate(27.347167,-71.652624)"><g
       style="clip-rule:evenodd;fill:#ffffff;fill-rule:evenodd;image-rendering:optimizeQuality;shape-rendering:geometricPrecision;text-rendering:geometricPrecision"
       id="g1"
       transform="matrix(0.11789381,0,0,0.11789381,-27.346139,71.650754)"><g
         id="Camada_x0020_1"
         inkscape:label="Camada 1"
         inkscape:groupmode="layer"
         style="fill:#ffffff">
  <metadata
   id="CorelCorpID_0Corel-Layer" />
  <path
   class="fil0"
   d="M 8.62,20.24 C 7.84,20.25 7.47,20.48 6.56,20.27 5.88,20.12 5.39,19.76 5.06,19.35 4.67,18.87 4.45,17.73 3.63,17.19 3.39,17.03 3.06,16.88 3.06,16.54 c 0.55,-0.51 1.61,0.17 2.08,0.78 0.15,0.2 0.29,0.46 0.44,0.67 1.06,1.4 2.91,0.79 3.08,0.58 C 8.75,18.46 8.74,17.89 9.1,17.35 9.15,17.28 9.17,17.25 9.22,17.19 9.34,17.04 9.28,17.17 9.37,16.98 6.49,16.74 4.67,15.35 4.26,12.59 3.77,9.26 5.31,8.26 5.31,7.98 5.31,7.9 5.13,7.24 5.12,6.97 5.09,6.58 5.12,6.18 5.19,5.81 5.21,5.68 5.37,4.95 5.51,4.89 6.35,4.75 7.73,5.51 8.25,5.86 c 0.52,0.36 0.41,0.18 1.44,0.01 0.59,-0.1 1.19,-0.15 1.8,-0.15 0.8,0 1.75,0.1 2.53,0.3 0.43,0.11 0.39,0.05 0.71,-0.15 0.64,-0.4 1.78,-1.08 2.77,-0.99 0.3,0.38 0.41,1.38 0.38,1.97 -0.04,0.95 -0.38,0.99 -0.04,1.4 0.95,1.12 1.14,2.65 0.89,4.31 -0.43,2.81 -2.21,4.17 -5.13,4.42 0.1,0.2 0.03,0.06 0.16,0.21 0.47,0.55 0.59,1.35 0.59,2.09 0.02,3.44 -0.5,4.38 1.8,3.3 0.69,-0.32 1.34,-0.67 1.89,-1.09 2.04,-1.51 4.02,-3.78 4.7,-7.3 0.73,-3.75 -0.31,-7.1 -2.05,-9.46 -6.33,-8.61 -19.54,-4.68 -20.63,5.76 -0.4,3.8 1,7.07 2.8,9.09 0.26,0.29 0.42,0.5 0.71,0.78 0.77,0.73 1.62,1.35 2.59,1.88 0.38,0.21 1.71,0.91 2.16,0.72 0.39,-0.17 0.32,-0.72 0.32,-1.18 -0.01,-0.49 0.01,-1.05 -0.02,-1.53 v 0 z"
   id="path1"
   style="fill:#ffffff" />
 </g></g></g></svg>
