<?xml version="1.0" encoding="UTF-8"?>
<!DOCTYPE svg PUBLIC "-//W3C//DTD SVG 1.1//EN" "http://www.w3.org/Graphics/SVG/1.1/DTD/svg11.dtd">
<!-- Creator: CorelDRAW 2020 (64 Bit) -->
<svg xmlns="http://www.w3.org/2000/svg" xml:space="preserve" width="2.7094mm" height="2.7092mm" version="1.1" style="shape-rendering:geometricPrecision; text-rendering:geometricPrecision; image-rendering:optimizeQuality; fill-rule:evenodd; clip-rule:evenodd"
viewBox="0 0 23.65 23.65"
 xmlns:xlink="http://www.w3.org/1999/xlink"
 xmlns:xodm="http://www.corel.com/coreldraw/odm/2003">
 <defs>
  <style type="text/css">
   <![CDATA[
    .fil0 {fill:#292929}
   ]]>
  </style>
 </defs>
 <g id="Camada_x0020_1">
  <metadata id="CorelCorpID_0Corel-Layer"/>
  <path class="fil0" d="M5.54 9.24l2.82 0 0 8.64 -2.82 0 0 -8.64zm5.81 -9.24l0.99 0c0.81,0.03 1.62,0.15 2.41,0.35 0.39,0.1 0.76,0.21 1.09,0.34 0.33,0.12 0.72,0.27 1.01,0.42 1.73,0.87 3.19,1.96 4.35,3.5 0.54,0.73 0.94,1.36 1.35,2.21 0.84,1.75 1.09,3.29 1.09,5.42 0,2.35 -0.96,4.7 -2.17,6.42 -1.2,1.7 -2.77,2.99 -4.65,3.9 -1.75,0.84 -3.29,1.09 -5.42,1.09 -1.63,0 -3.53,-0.57 -4.62,-1.11 -2.56,-1.26 -4.46,-3.13 -5.7,-5.71 -0.84,-1.75 -1.09,-3.29 -1.09,-5.42 0,-1.42 0.48,-3.37 1.11,-4.62 1.02,-2.02 2.06,-3.31 3.91,-4.64 1.82,-1.32 4.06,-2.06 6.34,-2.15zm-1.38 9.24l2.86 0 0 1.2c0.23,-0.17 1.04,-1.82 3.38,-1.35 1.69,0.34 2.53,1.84 2.53,3.61l0 5.17 -2.86 0 0 -4.94c0,-1.86 -1.87,-2.05 -2.62,-1.14 -0.27,0.32 -0.43,0.66 -0.43,1.24l0 4.85 -2.86 0c0,-0.81 0.05,-1.45 0.05,-2.26l0 -5.96c0,-0.23 -0.04,-0.21 -0.05,-0.42zm-4.62 -2.63c0,-0.5 0.14,-0.92 0.49,-1.18 1.17,-0.89 2.7,-0.12 2.7,0.95 0,0.32 0.02,0.51 -0.12,0.8 -0.06,0.12 -0.2,0.32 -0.28,0.41 -0.73,0.74 -2.78,0.53 -2.78,-0.98z"/>
 </g>
</svg>
