<?xml version="1.0" encoding="UTF-8"?>
<!DOCTYPE svg PUBLIC "-//W3C//DTD SVG 1.1//EN" "http://www.w3.org/Graphics/SVG/1.1/DTD/svg11.dtd">
<!-- Creator: CorelDRAW 2020 (64 Bit) -->
<svg xmlns="http://www.w3.org/2000/svg" xml:space="preserve" width="35.5642mm" height="34.9462mm" version="1.1" style="shape-rendering:geometricPrecision; text-rendering:geometricPrecision; image-rendering:optimizeQuality; fill-rule:evenodd; clip-rule:evenodd"
viewBox="0 0 5259.18 5167.79"
 xmlns:xlink="http://www.w3.org/1999/xlink"
 xmlns:xodm="http://www.corel.com/coreldraw/odm/2003">
 <defs>
  <style type="text/css">
   <![CDATA[
    .fil0 {fill:#292929}
   ]]>
  </style>
   <clipPath id="id0">
    <rect x="0.04" y="0.04" width="5259.09" height="5167.7"/>
   </clipPath>
 </defs>
 <g id="Camada_x0020_1">
  <metadata id="CorelCorpID_0Corel-Layer"/>
  <g style="clip-path:url(#id0)">
   <image id="linkedin.png" x="0.04" y="0.04" width="5259.09" height="5167.7" xlink:href="Linkedin_Images\Linkedin_ImgID1.png"/>
  </g>
  <path class="fil0" d="M1232.66 2018.68l626.56 0 0 1887.42 -626.56 0 0 -1887.42zm1292.47 -2018.63l219.38 0c180.13,7.29 360.16,32.56 536.46,76.56 86.63,21.63 168.18,46.92 243.57,73.55 72.9,25.75 159.62,59.8 224.7,92.1 384.9,190.96 709.68,427.16 966.99,765.66 120.49,158.51 209.13,296.59 299.94,482.42 186.55,381.78 242.96,719.47 242.96,1184.4 0,513.76 -213.03,1027.37 -482.69,1403.01 -266.73,371.56 -614.97,653.58 -1033.97,851.25 -389.47,183.75 -731.07,238.75 -1205.33,238.75 -361.86,0 -784.04,-124.34 -1027.33,-242.09 -568.98,-275.39 -991.24,-684.25 -1266.82,-1248.2 -186.99,-382.71 -242.96,-718.36 -242.96,-1184.4 0,-309.54 106.27,-736.48 246.48,-1009.36 227.39,-442.51 459.1,-722.31 868.79,-1013.54 404.58,-287.62 901.76,-449.68 1409.81,-470.11zm-306.4 2018.63l636.85 0 0 262.43c51.74,-37.25 230.44,-397.51 751.02,-293.88 374.81,74.6 563.74,401.64 563.74,788.44l0 1130.43 -636.85 0 0 -1079.96c0,-405.84 -415.29,-446.98 -582.69,-249.59 -59.23,69.81 -95.22,144.65 -95.22,269.77l0 1059.77 -636.85 0c0,-176.39 10.26,-317.51 10.26,-494.57l0 -1302.01c0,-50.5 -8.98,-45.09 -10.26,-90.84zm-1027.16 -575.31c0,-109.27 32.31,-200.48 108.13,-257.1 260.49,-194.53 600.61,-25.8 600.61,206.65 0,70.27 4.57,111.81 -26.84,175.47 -13,26.37 -44.2,70.76 -63.06,89.44 -162.95,161.25 -618.84,115.71 -618.84,-214.45z"/>
 </g>
</svg>
